<?xml version="1.0" encoding="UTF-8"?>
<svg width="1200pt" height="1200pt" version="1.1" viewBox="0 0 1200 1200" xmlns="http://www.w3.org/2000/svg">
 <path d="m74.516 1038.7 248.34 114.61c0.14063 0.066406 0.30078 0.039062 0.44531 0.097656 1.6094 0.67969 3.2891 1.1523 5.0234 1.1523 1.8672 0 3.7383-0.39844 5.4688-1.207l266.19-123.04 266.35 123.04c1.75 0.80859 3.6016 1.207 5.4688 1.207 1.7422 0 3.4297-0.47656 5.0508-1.1641 0.13281-0.054687 0.28516-0.03125 0.41797-0.089844l248.3-114.66c19.344-9.1797 30.246-29.363 27.141-50.23-0.015625-0.11719-0.050781-0.23828-0.066406-0.35547l-111.23-626.33c-2.1758-15.312-11.277-28.242-24.984-35.48-13.707-7.2539-29.535-7.4648-43.41-0.65234l-156.21 76.594-40.605-18.781c25.344-53.398 37.859-94.094 37.859-123.79 0-118.05-96.043-214.09-214.1-214.09-118.04 0-214.08 96.043-214.08 214.09 0 29.688 12.52 70.391 37.855 123.79l-40.605 18.785-156.2-76.586c-13.895-6.8438-29.723-6.6133-43.445 0.64453-13.688 7.2539-22.793 20.184-24.883 35.027l-111.39 627.28c-2.8867 20.879 8.0352 41.016 27.293 50.152zm320.86-613.44 39.809-18.418c39.301 77.309 101.68 173.92 151.75 243.75l0.003906 357.01-243.94 112.75zm217.65 225.33c49.809-69.469 112.34-166.07 151.75-243.75l39.828 18.418 21.027 278.21 31.5 416.89-244.11-112.76zm371.5-301.59c6.3516-3.1172 13.52-2.9961 19.719 0.30469 6.2344 3.2852 10.379 9.1523 11.43 16.535l111.26 626.58c1.3086 9.2305-3.8398 18.527-12.414 22.605l-231.12 106.72-51.457-680.98-1.2383-16.348zm-384.54-277.39c103.67 0 188.01 84.34 188.01 188 0 87.598-137.86 293.23-188.01 364.32-49.355-69.965-109.54-163.5-147.08-240-27.156-55.062-40.914-96.883-40.914-124.32 0-103.66 84.34-188 187.99-188zm-415.61 293.77c0.98437-6.9297 5.1133-12.789 11.344-16.074 3.2109-1.6992 6.6758-2.5547 10.156-2.5547 3.2422 0 6.5039 0.74609 9.5625 2.25 0 0.007812 0.015624 0.007812 0.015624 0.007812l153.82 75.418-52.547 697.32-231.14-106.68c-8.7969-4.168-13.824-13.398-12.586-22.453z" fill="#fff"/>
 <path d="m600.01 393.22c73.691 0 133.64-59.961 133.64-133.66 0-73.699-59.953-133.66-133.64-133.66-73.711 0-133.66 59.961-133.66 133.66 0 73.699 59.953 133.66 133.66 133.66zm0-241.23c59.309 0 107.56 48.258 107.56 107.57s-48.25 107.57-107.56 107.57c-59.324 0-107.57-48.258-107.57-107.57s48.254-107.57 107.57-107.57z" fill="#fff"/>
</svg>
