<?xml version="1.0" encoding="UTF-8"?>
<svg width="1200pt" height="1200pt" version="1.1" viewBox="0 0 1200 1200" xmlns="http://www.w3.org/2000/svg">
 <path d="m1200 295.45c0-16.547-6.1914-31.578-16.168-43.199-0.63281-0.88281-1.2617-1.8945-2.0195-2.6523-0.37891-0.37891-0.75781-0.63281-1.0117-1.0117-0.50391-0.50391-0.88281-0.88281-1.3906-1.3906-2.7773-2.6523-5.5586-5.0508-8.7148-7.1992-0.37891-0.25391-0.88281-0.50391-1.2617-0.75781-3.2852-2.1484-6.6953-4.043-10.23-5.5586-0.37891-0.125-0.88281-0.25391-1.2617-0.50391-3.7891-1.5156-7.5781-2.7773-11.496-3.5352-0.25391 0-0.50391-0.125-0.75781-0.125-4.293-0.88281-8.5898-1.2617-13.012-1.2617l-1065.2-0.003906c-4.4219 0-8.8438 0.50391-13.012 1.2617-0.25391 0-0.50391 0-0.63281 0.125-4.043 0.88281-7.832 2.0195-11.621 3.6641-0.37891 0.125-0.75781 0.25391-1.1367 0.50391-3.6641 1.5156-7.0742 3.4102-10.359 5.5586-0.37891 0.25391-0.75781 0.50391-1.1367 0.75781-3.1562 2.1484-6.0625 4.5469-8.8438 7.3281-0.37891 0.37891-0.88281 0.75781-1.2617 1.2617-0.37891 0.37891-0.75781 0.63281-1.1367 1.0117-0.88281 0.88281-1.5156 1.8945-2.1484 2.9062-9.9727 11.492-16.164 26.398-16.164 42.82v609.09c0 16.547 6.1914 31.453 16.168 43.199 0.63281 1.0117 1.2617 1.8945 2.0195 2.7773 0.37891 0.37891 0.75781 0.63281 1.0117 1.0117 0.50391 0.50391 0.88281 0.88281 1.3906 1.3906 2.7773 2.6523 5.5586 5.0508 8.7148 7.1992 0.37891 0.25391 0.88281 0.50391 1.2617 0.75781 3.2852 2.1484 6.6953 4.043 10.23 5.5586 0.37891 0.125 0.88281 0.37891 1.2617 0.50391 3.6641 1.5156 7.5781 2.7773 11.496 3.5352 0.25391 0 0.50391 0.125 0.75781 0.125 4.293 0.88281 8.5898 1.2617 13.012 1.2617h1065.2c4.4219 0 8.7148-0.50391 13.012-1.2617 0.25391 0 0.50391-0.125 0.75781-0.125 3.9141-0.88281 7.707-2.0195 11.496-3.5352 0.50391-0.125 0.88281-0.37891 1.3906-0.50391 3.5352-1.5156 6.8203-3.4102 10.105-5.4297 0.50391-0.25391 1.0117-0.63281 1.3906-0.88281 3.0312-2.1484 5.9375-4.5469 8.5898-7.0742l2.5273-2.5273c0.75781-0.75781 1.3906-1.6406 1.8945-2.6523 9.9727-11.75 16.289-26.781 16.289-43.328zm-480 304.55 441.85-310.48c0.37891 1.8945 0.63281 3.9141 0.63281 5.9375v609.09c0 2.0195-0.25391 4.043-0.63281 5.9375zm410.65-334.36-453.98 318.95-76.547 53.809-530.9-372.76zm-1092.5 644.84c-0.37891-1.8945-0.63281-3.9141-0.63281-5.9375v-609.09c0-2.0195 0.25391-4.043 0.63281-5.9375l441.85 310.48zm31.074 23.875 443.37-311.5 76.672 53.809c1.1367 0.75781 2.2734 1.2617 3.5352 1.7695 0.63281 0.25391 1.1367 0.63281 1.6406 0.88281 5.4297 1.7695 11.496 0.88281 16.422-2.5273l76.547-53.809 443.37 311.5h-1061.6z" fill="#fff"/>
</svg>
