<?xml version="1.0" encoding="UTF-8"?>
<svg width="1200pt" height="1200pt" version="1.1" viewBox="0 0 1200 1200" xmlns="http://www.w3.org/2000/svg">
 <path d="m918.75 206.25c-41.438 0-75 33.562-75 75s33.562 75 75 75 75-33.562 75-75-33.562-75-75-75zm0 112.5c-20.625 0-37.5-16.875-37.5-37.5s16.875-37.5 37.5-37.5 37.5 16.875 37.5 37.5-16.875 37.5-37.5 37.5z" fill="#fff"/>
 <path d="m600 806.25c113.81 0 206.25-92.438 206.25-206.25s-92.438-206.25-206.25-206.25-206.25 92.438-206.25 206.25 92.438 206.25 206.25 206.25zm0-375c93 0 168.75 75.75 168.75 168.75s-75.75 168.75-168.75 168.75-168.75-75.75-168.75-168.75 75.75-168.75 168.75-168.75z" fill="#fff"/>
 <path d="m993.75 112.5h-787.5c-51.75 0-93.75 42-93.75 93.75v787.5c0 51.75 42 93.75 93.75 93.75h787.5c51.75 0 93.75-42 93.75-93.75v-787.5c0-51.75-42-93.75-93.75-93.75zm56.25 881.25c0 30.938-25.312 56.25-56.25 56.25h-787.5c-30.938 0-56.25-25.312-56.25-56.25v-375h150.94c9.75 156.75 139.88 281.25 299.06 281.25s289.31-124.5 299.06-281.25h150.94zm-712.5-393.75c0-144.75 117.75-262.5 262.5-262.5s262.5 117.75 262.5 262.5-117.75 262.5-262.5 262.5-262.5-117.75-262.5-262.5zm712.5-18.75h-150.94c-9.75-156.75-140.06-281.25-299.06-281.25s-289.31 124.5-299.06 281.25h-150.94v-375c0-30.938 25.312-56.25 56.25-56.25h787.5c30.938 0 56.25 25.312 56.25 56.25z" fill="#fff"/>
</svg>
