<?xml version="1.0" encoding="UTF-8"?>
<svg width="1200pt" height="1200pt" version="1.1" viewBox="0 0 1200 1200" xmlns="http://www.w3.org/2000/svg">
 <path d="m200.02 150c-27.328 0-50.016 22.688-50.016 50.016v575.02c0 27.328 22.688 50.016 50.016 50.016h200.02v189.79c0 14.672 9.7969 27.703 21.844 32.672 12 4.9688 28.125 2.7188 38.531-7.6875l214.78-214.82h324.79c27.328 0 50.016-22.688 50.016-50.016v-575.02c0-27.328-22.688-50.016-50.016-50.016zm0 50.016h800.02v575.02l-335.21-0.046875c-6.6094 0-12.984 2.6719-17.672 7.3594l-197.16 197.11v-179.44c0-13.828-11.203-25.031-24.984-25.031h-225zm174.98 199.97c-48.047 0-87.516 39.469-87.516 87.516s39.469 87.516 87.516 87.516 87.516-39.469 87.516-87.516-39.469-87.516-87.516-87.516zm225 0c-48.047 0-87.516 39.469-87.516 87.516s39.469 87.516 87.516 87.516 87.516-39.469 87.516-87.516-39.469-87.516-87.516-87.516zm225 0c-48.047 0-87.516 39.469-87.516 87.516s39.469 87.516 87.516 87.516 87.516-39.469 87.516-87.516-39.469-87.516-87.516-87.516zm-450 50.016c21 0 37.5 16.5 37.5 37.5s-16.5 37.5-37.5 37.5-37.5-16.5-37.5-37.5 16.5-37.5 37.5-37.5zm225 0c21 0 37.5 16.5 37.5 37.5s-16.5 37.5-37.5 37.5-37.5-16.5-37.5-37.5 16.5-37.5 37.5-37.5zm225 0c21 0 37.5 16.5 37.5 37.5s-16.5 37.5-37.5 37.5-37.5-16.5-37.5-37.5 16.5-37.5 37.5-37.5z" fill="#fff"/>
</svg>
